# xmcd
#
# Track frame offsets:
#	150
#	22472
#	44993
#	65232
#	80122
#	104230
#	127431
#	154740
#	187882
#	210040
#	224782
#	241471
#	257131
#
# Disc length: 3699 seconds
#
# Revision: 1
# Processed by: cddbd v1.5.2PL0 Copyright (c) Steve Scherf et al.
# Submitted via: audiograbber 1.83.01
#
DISCID=dd0e710d
DTITLE=Lucy M. Montgomery - Anne in Four Winds - 19 - Verwirrung der Gefühle
DYEAR=2010
DGENRE=Acid
TTITLE0=01
TTITLE1=02
TTITLE2=03
TTITLE3=04
TTITLE4=05
TTITLE5=06
TTITLE6=07
TTITLE7=08
TTITLE8=09
TTITLE9=10
TTITLE10=11
TTITLE11=12
TTITLE12=13
EXTD=
EXTT0=
EXTT1=
EXTT2=
EXTT3=
EXTT4=
EXTT5=
EXTT6=
EXTT7=
EXTT8=
EXTT9=
EXTT10=
EXTT11=
EXTT12=
PLAYORDER=
